<svg xmlns="http://www.w3.org/2000/svg" version="1.1" xmlns:xlink="http://www.w3.org/1999/xlink" width="39.8" height="38.8"><svg version="1.1" id="SvgjsSvg1021" xmlns="http://www.w3.org/2000/svg" xmlns:xlink="http://www.w3.org/1999/xlink" x="0px" y="0px" viewBox="0 0 39.8 38.8" style="enable-background:new 0 0 39.8 38.8;" xml:space="preserve">
<style type="text/css">
	.st0{fill:#121212;}
	.st1{fill:none;stroke:#231F20;stroke-width:0.75;stroke-linecap:square;}
</style><style class="darkreader darkreader--sync" media="screen"></style>
<g id="SvgjsG1020" transform="translate(0.375 -5.625)">
	<g id="SvgjsG1019" transform="translate(9)">
		<polygon class="st0" points="19.6,15.2 19.6,15.8 17.3,15.8 17.3,34.3 19.6,34.3 19.6,34.8 12.2,34.8 12.2,34.2 14.8,34.2 
			14.8,25.4 6.2,25.4 6.2,34.2 8.8,34.2 8.8,34.8 1.4,34.8 1.4,34.2 3.7,34.2 3.7,15.7 1.4,15.7 1.4,15.2 8.8,15.2 8.8,15.8 
			6.2,15.8 6.2,24.9 14.8,24.9 14.8,15.8 12.2,15.8 12.2,15.2 		"></polygon>
	</g>
	<g id="SvgjsG1018" transform="translate(0 6)">
		<line id="SvgjsLine1017" class="st1" x1="0" y1="0" x2="0" y2="7"></line>
		<line id="SvgjsLine1016" class="st1" x1="0" y1="0" x2="7" y2="0"></line>
	</g>
	<g id="SvgjsG1015" transform="translate(32 37)">
		<line id="SvgjsLine1014" class="st1" x1="7" y1="7" x2="7" y2="0"></line>
		<line id="SvgjsLine1013" class="st1" x1="7" y1="7" x2="0" y2="7"></line>
	</g>
</g>
</svg><style>@media (prefers-color-scheme: light) { :root { filter: none; } }
@media (prefers-color-scheme: dark) { :root { filter: none; } }
</style></svg>