<svg width="1000" height="1000" viewBox="0 0 1000 1000" fill="none" xmlns="http://www.w3.org/2000/svg">
    <rect width="1000" height="1000" fill="#252257"/>
    <path d="M102.5 913.564V914.064H103H377.419H377.919V913.564V87V86.5H377.419H103H102.5V87V913.564Z" fill="#F6F6F6" stroke="#252257"/>
    <path d="M608.519 895.448V915.448H628.519H896.869H916.869V895.448V87V67H896.869H621.725H601.725V87V306.534C557.408 274.811 501.706 259.488 436.031 259.488C370.327 259.488 312.265 274.164 262.611 304.282C213.226 334.236 175.196 375.991 148.66 429.062L148.632 429.118L148.605 429.173C122.897 481.393 110.316 540.733 110.316 606.716C110.316 671.247 122.921 728.843 148.776 778.937L148.865 779.11L148.958 779.281C175.478 828.304 211.55 866.548 257.168 893.43C302.796 920.318 354.295 933.564 411.121 933.564C489.452 933.564 555.702 913.647 608.519 872.923V895.448ZM580.167 670.996L579.855 671.271L579.556 671.559C564.603 685.937 542.933 694.283 511.894 694.283C480.433 694.283 460.35 685.666 447.762 671.723C434.823 657.393 426.592 633.926 426.592 597.658C426.592 562.053 434.976 538.084 448.715 522.628C462.052 507.624 482.345 498.769 513.026 498.769C544.109 498.769 565.188 507.13 579.276 521.218C594.183 536.125 602.857 558.011 602.857 589.732V608.981C602.857 639.027 594.312 658.483 580.167 670.996Z"
          fill="#F6F6F6" stroke="#252257" stroke-width="40"/>
</svg>
